# xmcd CD database file
#
# Track frame offsets:
#	150
#	14536
#	27361
#	48677
#	66581
#	84618
#	100217
#	117092
#	133311
#	151000
#	172306
#	186281
#	199530
#	216580
#	235384
#	250309
#
# Disc length: 3648 seconds
#
# Revision: 0
# Processed by: cddbd v1.5.2PL0 Copyright (c) Steve Scherf et al.
# Submitted via: CDex 1.70beta2
#
DISCID=f30e3e10
DTITLE=B.B. and The Blues Shacks - Businessmen
DYEAR=2014
DGENRE=Blues
TTITLE0=Out of Tears
TTITLE1=Gimme This, Gimme That
TTITLE2=Take My Name
TTITLE3=Businessmen
TTITLE4=Buckle up
TTITLE5=Lovin' Might
TTITLE6=Pardon me
TTITLE7=Rain All down My Way
TTITLE8=Who's Cryin' Now
TTITLE9=It Was a Dream
TTITLE10=Hot Pants
TTITLE11=Green Eye
TTITLE12=I Overpaid My Dues
TTITLE13=Blues Shadow
TTITLE14=Goodbye Everybody
TTITLE15=Deep in the Heart of Texas
EXTD=YEAR: 2014
EXTT0=
EXTT1=
EXTT2=
EXTT3=
EXTT4=
EXTT5=
EXTT6=
EXTT7=
EXTT8=
EXTT9=
EXTT10=
EXTT11=
EXTT12=
EXTT13=
EXTT14=
EXTT15=
PLAYORDER=
